HIERARCHY
ROOT pelvis
{
  OFFSET 0 100 0
  CHANNELS 6 Xposition Yposition Zposition Zrotation Xrotation Yrotation
  JOINT pelvis_right_femur
  {
    OFFSET -10.78128 -3.44521 -0.5502486
    CHANNELS 3 Zrotation Xrotation Yrotation
    JOINT right_femur_tibia
    {
      OFFSET -0.8047443 -44.0398 -0.1307829
      CHANNELS 3 Zrotation Xrotation Yrotation
      JOINT right_tibia_foot
      {
        OFFSET 3.006224 -47.83518 -5
        CHANNELS 3 Zrotation Xrotation Yrotation
        End Site
        {
          OFFSET 0 -5 15
        }
      }
    }
  }
  JOINT pelvis_left_femur
  {
    OFFSET 10.78128 -3.44521 -0.5502486
    CHANNELS 3 Zrotation Xrotation Yrotation
    JOINT left_femur_tibia
    {
      OFFSET 0.8047443 -44.0398 -0.1307829
      CHANNELS 3 Zrotation Xrotation Yrotation
      JOINT left_tibia_foot
      {
        OFFSET -4.370144 -48.10324 -4.275266
        CHANNELS 3 Zrotation Xrotation Yrotation
        End Site
        {
          OFFSET 0 -5 15
        }
      }
    }
  }
  JOINT pelvis_spine1
  {
    OFFSET 0 6.468898 -3.129235
    CHANNELS 3 Zrotation Xrotation Yrotation
    JOINT spine1
    {
      OFFSET 0 23.15396 4.99043
      CHANNELS 3 Zrotation Xrotation Yrotation
      JOINT spine2
      {
        OFFSET 0 20.79997 -5.064912
        CHANNELS 3 Zrotation Xrotation Yrotation
        JOINT neck
        {
          OFFSET 0 14.38658 9.616178
          CHANNELS 3 Zrotation Xrotation Yrotation
          End Site
          {
            OFFSET 0 20 0
          }
        }
      }
      JOINT right_manubrium
      {
        OFFSET -5.722621 16.35077 3.967754
        CHANNELS 3 Zrotation Xrotation Yrotation
        JOINT right_clavicle
        {
          OFFSET -13.16364 1.694482 -4.693211
          CHANNELS 3 Zrotation Xrotation Yrotation
          JOINT right_humerus
          {
            OFFSET -28.5034 -0.3100689 -2.792744
            CHANNELS 3 Zrotation Xrotation Yrotation
            JOINT right_radius
            {
              OFFSET -25.15693 0.02248979 -1.271978
              CHANNELS 3 Zrotation Xrotation Yrotation
              End Site
              {
                OFFSET -15 0 0
              }
            }
          }
        }
      }
      JOINT left_manubrium
      {
        OFFSET 5.722621 16.35077 3.967754
        CHANNELS 3 Zrotation Xrotation Yrotation
        JOINT left_clavicle
        {
          OFFSET 13.16364 1.694482 -4.693211
          CHANNELS 3 Zrotation Xrotation Yrotation
          JOINT left_humerus
          {
            OFFSET 29.39168 -1.063119 -2.237045
            CHANNELS 3 Zrotation Xrotation Yrotation
            JOINT left_radius
            {
              OFFSET 24.59957 -0.9528479 0.9047498
              CHANNELS 3 Zrotation Xrotation Yrotation
              End Site
              {
                OFFSET 15 -0 -0
              }
            }
          }
        }
      }
    }
  }
}
MOTION
Frames: 17
Frame Time: 0.0416666666667
0 103.5113 0 1.168941 -1.8656 0.08098084 3.09271 -15.99221 7.897098 -0 36.68593 -0 -5.657363 -15.39538 -3.82016 -6.985774 12.23919 -23.01798 -0 4.892281 -0 6.807056 -17.76442 25.46821 -3.703041 -4.944613 3.73402 3.383904 7.849837 -9.66537 1.286413 19.13613 8.6099 4.51207 -27.39491 10.4638 6.013078 -19.50879 11.89796 83.30913 30.30074 -18.20023 -0 0 21.17369 -9.785802 9.961473 4.034642 10.38709 -21.65139 4.862024 -94.86385 19.43777 20.45325 0 0 -8.172121 12.17239 20.18659 -2.847968
0.2338637 103.3131 1.597314 0.8020875 -1.104114 0.1184703 3.57141 -19.07853 8.098465 -0 36.5689 -0 -5.444013 -14.51959 -3.929398 -6.749403 12.7904 -23.05445 -0 5.46119 -0 4.712473 -19.88785 24.5832 -3.652434 -4.815324 3.576226 3.522696 7.673912 -9.736777 1.206168 18.99083 8.764635 4.59941 -27.54107 10.47207 5.982858 -19.31481 11.95048 83.3081 30.44769 -18.26658 -0 0 20.82101 -9.913462 10.06267 4.25075 10.4642 -21.71048 4.92618 -94.52195 19.22663 19.96495 0 0 -8.764036 12.24026 19.84513 -3.113782
0.4801017 102.9993 3.48949 0.267493 -0.07536585 0.1632031 4.512236 -23.61304 7.669779 -0 33.26334 -0 -5.480441 -12.64626 -3.460179 -6.419484 13.08959 -22.09552 -0 5.92727 -0 4.844404 -21.21953 23.83513 -2.860248 -3.568586 2.988928 4.158021 7.439056 -9.761139 0.9136329 18.65138 9.031688 4.680208 -28.09822 10.36936 5.832562 -18.09163 11.99578 84.43284 32.33281 -19.63362 -0 0 16.97044 -9.593643 10.36492 5.0679 9.95086 -22.02088 3.619388 -92.29927 19.36715 17.35793 0 0 -14.1855 12.50658 16.7954 -3.316327
0.7379137 102.5656 5.712429 -0.2100327 1.132494 0.2484736 5.361311 -27.71566 7.379289 -0 29.66387 -0 -5.388347 -10.92161 -3.018765 -6.143433 13.28624 -21.10299 -0 6.082662 -0 4.898327 -22.41409 23.0148 -2.606426 -3.17335 2.851525 4.302359 7.465222 -9.746137 0.832479 18.59551 9.070043 4.682956 -28.16663 10.29864 5.761586 -17.72502 12.00374 84.92467 32.92026 -20.14595 -0 0 15.69285 -9.579502 10.47484 5.339353 9.730901 -22.15477 3.094797 -91.5447 19.43518 16.51714 0 0 -15.99641 12.52689 15.75334 -3.239064
1.005587 101.9896 8.400285 -0.6595589 2.446189 0.4059884 6.218355 -31.60068 6.963677 -0 25.15891 -0 -5.401272 -8.891901 -2.460476 -5.920836 13.56616 -19.82977 -0 6.335853 -0 5.383108 -23.17963 22.14062 -2.320752 -2.772113 2.725958 4.420795 7.533225 -9.741425 0.7516343 18.53493 9.08099 4.68714 -28.16952 10.17415 5.675961 -17.33518 12.00735 85.49474 33.40911 -20.74716 -0 0 14.39148 -9.694881 10.64375 5.645924 9.510645 -22.33024 2.533738 -90.80379 19.52447 15.69715 0 0 -17.77507 12.39994 14.71754 -2.974682
1.265922 101.2899 11.63562 -1.089619 3.670153 0.6693255 6.992738 -34.68358 6.510375 -0 20.80444 -0 -5.586244 -6.756444 -1.946463 -5.706569 14.00392 -18.50676 -0 7.063638 -0 5.395319 -23.59262 20.94833 -2.116874 -2.500272 2.647773 4.484199 7.603164 -9.744467 0.6963967 18.49332 9.075207 4.691765 -28.12909 10.05945 5.609347 -17.06055 12.00862 85.9187 33.67718 -21.19557 -0 0 13.50686 -9.860546 10.7924 5.879176 9.362258 -22.47043 2.137411 -90.30584 19.59009 15.14832 0 0 -18.94831 12.23149 14.01767 -2.695539
1.498517 100.528 15.49042 -1.534338 4.629054 1.0622 7.705001 -36.60534 6.045924 -0 17.19067 -0 -6.02616 -4.655914 -1.534411 -5.446799 14.59101 -17.20105 -0 8.822674 -0 4.618365 -23.41676 19.28055 -1.909576 -2.241392 2.57575 4.531808 7.687402 -9.757136 0.6431013 18.44881 9.055437 4.699218 -28.05297 9.916941 5.542565 -16.78274 12.0074 86.34628 33.8554 -21.66211 -0 0 12.66903 -10.10669 10.97262 6.126323 9.226616 -22.6212 1.751674 -89.85328 19.66688 14.64828 0 0 -19.99678 11.97313 13.3721 -2.315054
1.691045 99.81259 19.98871 -2.016092 5.147378 1.576091 8.362093 -37.03262 5.631779 -0 14.91761 -0 -6.695656 -2.896579 -1.286666 -5.08296 15.15001 -16.00382 -0 12.10483 -0 2.815547 -22.42853 17.07363 -1.707551 -1.994943 2.525725 4.554507 7.804051 -9.762357 0.5974491 18.42579 9.008282 4.696326 -27.93255 9.752263 5.480151 -16.51989 12.00196 86.77531 33.97424 -22.12471 -0 0 11.88179 -10.39751 11.16156 6.370729 9.075573 -22.76291 1.352301 -89.45472 19.77811 14.22973 0 0 -20.90815 11.65032 12.77376 -1.839403
1.848825 99.29299 25.09809 -2.513591 5.099073 2.151429 8.943298 -35.77941 5.283875 -0 14.1978 -0 -7.52548 -1.804753 -1.214005 -4.596082 15.34747 -14.93711 -0 17.33487 -0 0.2184288 -20.38373 14.50825 -1.501063 -1.738067 2.513409 4.541104 7.985626 -9.740563 0.5610461 18.44955 8.912912 4.669128 -27.74114 9.551791 5.420877 -16.26865 11.99133 87.24106 34.06896 -22.5983 -0 0 11.08703 -10.73385 11.35605 6.621201 8.863962 -22.88604 0.877746 -89.09219 19.96126 13.9043 0 0 -21.73162 11.24713 12.1656 -1.216898
1.997157 99.13008 30.71546 -2.94464 4.473354 2.677975 9.361744 -32.89505 4.968595 -0 14.74874 -0 -8.394034 -1.630552 -1.283247 -4.032389 14.72688 -13.96417 -0 24.60665 -0 -2.58274 -17.27105 11.98579 -1.302785 -1.470501 2.564713 4.47267 8.256836 -9.666662 0.5386332 18.55135 8.753006 4.604528 -27.45367 9.314426 5.366844 -16.05494 11.97776 87.73507 34.16452 -23.04176 -0 0 10.30995 -11.10635 11.53678 6.873291 8.556867 -22.96421 0.302776 -88.78471 20.24071 13.73007 0 0 -22.42536 10.77197 11.53778 -0.4358716
2.170352 99.44452 36.66981 -3.180877 3.389535 3.027365 9.483839 -28.64496 4.622997 -0 15.8367 -0 -9.173356 -2.420143 -1.420181 -3.496831 12.82683 -13.00148 -0 33.52806 -0 -4.872662 -13.4238 9.961012 -1.129603 -1.196509 2.702851 4.330771 8.62865 -9.518289 0.5312959 18.75241 8.522526 4.497396 -27.04669 9.039286 5.317073 -15.90611 11.96662 88.22802 34.27603 -23.39389 -0 0 9.601158 -11.52994 11.69117 7.137251 8.134975 -22.97151 -0.3745474 -88.55367 20.62263 13.7631 0 0 -22.93514 10.22745 10.88528 0.5037155
2.392161 100.2576 42.74851 -3.095908 2.065601 3.107924 9.193113 -23.44393 4.210993 -0 16.54586 -0 -9.740133 -3.945516 -1.530302 -3.094342 9.351873 -11.96849 -0 43.08848 -0 -6.144303 -9.484112 8.745491 -1.0037 -0.9296214 2.94577 4.100283 9.089905 -9.278789 0.5365709 19.0574 8.230361 4.352477 -26.50753 8.731095 5.266219 -15.85398 11.9647 88.66039 34.40867 -23.56664 -0 0 9.046777 -12.03591 11.81023 7.434673 7.604661 -22.8848 -1.120278 -88.4231 21.08609 14.05211 0 0 -23.19834 9.622517 10.21572 1.57184
2.660773 101.4557 48.74603 -2.625546 0.7252016 2.906312 8.464792 -17.7403 3.753969 -0 16.18461 -0 -9.998392 -5.760085 -1.527057 -2.847465 4.327088 -10.83038 -0 51.75472 -0 -6.257648 -6.153882 8.45091 -0.9443392 -0.6876509 3.302767 3.772231 9.608724 -8.94043 0.5482398 19.45088 7.897589 4.183296 -25.83603 8.396091 5.203212 -15.92676 11.97709 88.95344 34.55297 -23.46207 -0 0 8.74764 -12.67366 11.89304 7.799952 6.997066 -22.68997 -1.873235 -88.41294 21.58801 14.62844 0 0 -23.16193 8.96189 9.542294 2.725449
2.951537 102.8037 54.51482 -1.818578 -0.4914308 2.490785 7.417019 -11.93884 3.315728 -0 14.59879 -0 -9.912148 -7.383839 -1.366628 -2.648617 -1.83531 -9.592364 -0 57.79313 -0 -5.405219 -3.916974 9.0403 -0.9639128 -0.49001 3.774682 3.345331 10.13787 -8.504042 0.5581544 19.90104 7.552 4.007773 -25.04691 8.041816 5.112902 -16.14742 12.00454 89.01878 34.68497 -22.98305 -0 0 8.806431 -13.49612 11.94256 8.271389 6.360357 -22.3817 -2.556448 -88.53999 22.0741 15.50782 0 0 -22.78473 8.246341 8.883625 3.917796
3.237463 104.007 59.99332 -0.8540847 -1.556458 1.977883 6.305711 -6.365752 2.958026 -0 12.21013 -0 -9.530978 -8.550903 -1.078728 -2.279947 -8.414329 -8.254243 -0 59.75714 -0 -3.981799 -2.881932 10.36827 -1.065821 -0.3539385 4.354093 2.82751 10.62172 -7.977771 0.5579351 20.36672 7.222515 3.843867 -24.16993 7.676564 4.979818 -16.53111 12.04243 88.76979 34.76878 -22.04522 -0 0 9.312511 -14.5447 11.96122 8.882226 5.748592 -21.96073 -3.091718 -88.81822 22.49239 16.69121 0 0 -22.03867 7.472436 8.262041 5.108283
3.5129 104.7932 65.20494 -0.001831177 -2.501197 1.481096 5.443042 -1.253632 2.705551 -0 9.753065 -0 -8.955694 -9.372146 -0.7623531 -1.496817 -14.59099 -6.786362 -0 56.96054 -0 -2.459931 -2.807616 12.17068 -1.244807 -0.2917317 5.025051 2.237554 11.00264 -7.376261 0.5405463 20.80449 6.936065 3.706669 -23.24991 7.310837 4.792348 -17.08283 12.08137 88.13485 34.76406 -20.58968 -0 0 10.32655 -15.83272 11.94616 9.651145 5.212355 -21.43232 -3.412145 -89.25415 22.80241 18.15795 0 0 -20.91924 6.640419 7.700995 6.2608
3.802831 104.9854 70.24228 0.4775225 -3.326749 1.060109 5.057636 3.27042 2.542801 -0 7.881877 -0 -8.255919 -10.27152 -0.5254284 -0.1607721 -19.70257 -5.173461 -0 49.76676 -0 -1.282547 -3.265482 14.07245 -1.486976 -0.3079684 5.761597 1.60638 11.22916 -6.72197 0.5018992 21.1741 6.715449 3.606824 -22.34486 6.958642 4.54573 -17.79276 12.10902 87.07845 34.63423 -18.60461 -0 0 11.85899 -17.33261 11.88846 10.57347 4.791924 -20.80969 -3.474547 -89.83559 22.97906 19.84961 0 0 -19.46731 5.76499 7.220452 7.337533
